<?xml version="1.0" standalone="yes"?>
<svg xmlns="http://www.w3.org/2000/svg" width="1519" height="313">
<path style="fill:#010101; stroke:none;" d="M0 0L0 97L1 97C1.91929 52.4614 39.2472 3.01279 86 1L59 0L0 0z"/>
<path style="fill:#131313; stroke:none;" d="M86.6667 0.333344L87.3333 0.666656L86.6667 0.333344z"/>
<path style="fill:#111111; stroke:none;" d="M58 10L56 9L35 23L36 25C26.5905 27.8209 11.9321 48.2584 12 58C5.62279 63.1913 3.44431 78.6615 2.15046 86.4205C-0.662075 103.287 -1.57986 122.063 1.46296 139C3.42349 149.912 8.61066 162.119 9 173L11 173C10.3354 184.902 19.8671 198.945 25.3711 209C37.0305 230.3 51.583 251.305 70.0355 267.385C81.7446 277.589 96.9355 284.561 108 295L110 294L114 296C117.871 301.159 128.646 303.849 134.715 305.719C154.502 311.818 175.532 313.953 195.999 310.247C202.525 309.065 214.857 308.516 219 303C227.185 303.711 237.025 296.822 244 292.941C269.4 278.807 285.176 258.103 306 239L305 237L309 235L308 233C317.156 226.99 332.076 201.926 332 191C336.894 187.295 340.532 175.014 340 169C348.189 162.144 348.234 138.223 349.343 128.09C354.762 78.5842 332.406 18.3131 280 3.9267C255.631 -2.76297 229.802 -0.506805 206.09 7.94058C197.154 11.1237 184.273 22.0115 175.282 22.4707C171.1 22.6842 167.384 18.3 163 18C159.028 12.3925 149.002 9.92709 142.665 7.8588C122.825 1.38293 103.87 -1.34192 82.9992 1.0517C75.8525 1.87134 62.3259 3.77484 58 10z"/>
<path style="fill:#131313; stroke:none;" d="M90 0L91 1L90 0M92 0L93 1L92 0M107 0L108 1L107 0z"/>
<path style="fill:#010101; stroke:none;" d="M113 0L113 1C127.147 1.29205 142.322 6.79654 155 12.7809C160.567 15.4086 168.772 22.3555 175 22.1913C181.529 22.0192 190.08 14.9836 196 12.2338C208.602 6.38025 222.979 1.28946 237 1C226.973 -3.2077 209.896 0 199 0L113 0z"/>
<path style="fill:#131313; stroke:none;" d="M237 0L238 1L237 0M253.667 0.333344L254.333 0.666656L253.667 0.333344z"/>
<path style="fill:#010101; stroke:none;" d="M264 0L264 1C337.257 4.15384 357.549 92.1093 346.196 150C328.773 238.839 239.387 333.813 142 307.845C124.542 303.19 107.895 295.146 93 284.971C72.1975 270.762 54.1813 252.598 39.7207 232C19.9101 203.781 1.29238 166.319 1 131L0 131L0 313L1519 313L1519 0L264 0z"/>
<path style="fill:#131313; stroke:none;" d="M118.667 1.33334L119.333 1.66666L118.667 1.33334M230 1L230 2L233 2L230 1M265 1L266 2L265 1M75 2L76 3L75 2M123 2L124 3L123 2z"/>
<path style="fill:#1c1c1c; stroke:none;" d="M224 2L225 3L224 2z"/>
<path style="fill:#131313; stroke:none;" d="M225.667 2.33334L226.333 2.66666L225.667 2.33334M272 2L272 3L275 3L272 2M72.6667 3.33334L73.3333 3.66666L72.6667 3.33334M127 3L128 4L127 3M220.667 3.33334L221.333 3.66666L220.667 3.33334M130 4L131 5L130 4M132 4L133 5L132 4z"/>
<path style="fill:#1c1c1c; stroke:none;" d="M216 4L217 5L216 4z"/>
<path style="fill:#131313; stroke:none;" d="M218 4L219 5L218 4M213 5L214 6L213 5M284 5L285 6L284 5M63 6L64 7L63 6M139 6L140 7L139 6M210.667 6.33334L211.333 6.66666L210.667 6.33334M286 6L287 7L286 6M140 7L141 8L140 7M142 7L143 8L142 7M289 7L290 8L289 7M143 8L144 9L143 8z"/>
<path style="fill:#1c1c1c; stroke:none;" d="M204 8L205 9L204 8z"/>
<path style="fill:#131313; stroke:none;" d="M290 8L291 9L290 8M57 9L58 10L57 9M147 9L148 10L147 9M203 9L204 10L203 9M293 9L294 10L293 9M54.6667 10.3333L55.3333 10.6667L54.6667 10.3333M52.6667 11.3333L53.3333 11.6667L52.6667 11.3333M152 11L153 12L152 11M197 11L198 12L197 11M297 11L298 12L297 11M50 12L51 13L50 12M154 12L155 13L154 12z"/>
<path style="fill:#212121; stroke:none;" d="M299 12L300 13L299 12z"/>
<path style="fill:#131313; stroke:none;" d="M156 13L157 14L156 13M47 14L48 15L47 14z"/>
<path style="fill:#1c1c1c; stroke:none;" d="M190 14L191 15L190 14z"/>
<path style="fill:#131313; stroke:none;" d="M302 14L303 15L302 14z"/>
<path style="fill:#212121; stroke:none;" d="M45 15L46 16L45 15z"/>
<path style="fill:#131313; stroke:none;" d="M160 15L161 16L160 15M303 15L304 16L303 15M44 16L45 17L44 16M187.667 16.3333L188.333 16.6667L187.667 16.3333M305 16L306 17L305 16M163 17L164 18L163 17M306 17L307 18L306 17M41 18L42 19L41 18M166 18L167 19L166 18M309 19L310 20L309 19z"/>
<path style="fill:#1c1c1c; stroke:none;" d="M179 20L180 21L179 20z"/>
<path style="fill:#131313; stroke:none;" d="M180 20L181 21L180 20M310 20L311 21L310 20M36 23L39 21L36 23M178 21L179 22L178 21M173 22L174 23L173 22M176 22L177 23L176 22M312 22L313 23L312 22M174 23L175 24L174 23z"/>
<path style="fill:#1c1c1c; stroke:none;" d="M314 23L315 24L314 23z"/>
<path style="fill:#131313; stroke:none;" d="M34.6667 24.3333L35.3333 24.6667L34.6667 24.3333M32 26L33 27L32 26M31 27L32 28L31 27M318 27L319 28L318 27M319 28L320 29L319 28M29 29L30 30L29 29M320 29L321 30L320 29M321 30L322 31L321 30M27 31L28 32L27 31M92 31L93 32L92 31M97 31L97 32L102 32L97 31M241.667 31.3333L242.333 31.6667L241.667 31.3333M257 31L258 32L257 31M26 32L27 33L26 32M88 32L89 33L88 32z"/>
<path style="fill:#010101; stroke:none;" d="M80 231C70.7023 181.652 82.9732 130.93 110.344 89C121.092 72.5357 135.874 59.7947 147 44C134.15 38.6573 121.181 32.6613 107 32.0394C64.3252 30.1677 37.3511 58.7603 32.2863 100C27.9089 135.643 40.1353 174.128 59.0532 204C64.9392 213.294 71.3757 224.041 80 231z"/>
<path style="fill:#131313; stroke:none;" d="M111.667 32.3333L112.333 32.6667L111.667 32.3333M235.667 32.3333L236.333 32.6667L235.667 32.3333z"/>
<path style="fill:#010101; stroke:none;" d="M233 147C215.978 152.009 202.316 171.786 185 174.802C177.985 176.025 164.913 156.077 168.647 150.093C172.045 144.648 180.681 141.106 186 137.808C199.378 129.513 212.682 121.075 226 112.681C230.635 109.76 240.039 101.211 245.895 103.506C253.581 106.519 258.736 125.781 261.308 133C273.227 166.461 272.755 196.38 270 231C287.959 214.214 300.043 189.697 308.575 167C314.739 150.602 317.999 132.489 318 115C318.001 99.0904 315.835 82.4117 308.63 68C290.31 31.3605 248.328 24.3666 213 39.4275C154.404 64.4076 109 129.635 109 194C109 219.022 112.765 244.071 131.425 262.572C163.598 294.469 216.503 279.918 233.573 240C246.79 209.09 239.465 178.241 233 147z"/>
<path style="fill:#131313; stroke:none;" d="M263 32L264 33L263 32M82 33L83 34L82 33z"/>
<path style="fill:#1c1c1c; stroke:none;" d="M83 33L84 34L83 33z"/>
<path style="fill:#131313; stroke:none;" d="M118 33L119 34L118 33M230.667 33.3333L231.333 33.6667L230.667 33.3333M267 33L268 34L267 33M79 34L80 35L79 34M122 34L123 35L122 34M225 34L226 35L225 34M227 34L228 35L227 34M125.667 35.3333L126.333 35.6667L125.667 35.3333M224 35L225 36L224 35M23 36L24 37L23 36M72.6667 36.3333L73.3333 36.6667L72.6667 36.3333M128 36L129 37L128 36M276 36L277 37L276 36z"/>
<path style="fill:#212121; stroke:none;" d="M326 36L327 37L326 36z"/>
<path style="fill:#131313; stroke:none;" d="M22.3333 37.6667L22.6667 38.3333L22.3333 37.6667M71 37L72 38L71 37M131 37L132 38L131 37M217 37L218 38L217 37M69 38L70 39L69 38M134 38L135 39L134 38M214 38L215 39L214 38M281 38L282 39L281 38M327 38L328 39L327 38M136.667 39.3333L137.333 39.6667L136.667 39.3333M328 39L329 40L328 39M139 40L140 41L139 40M209 40L210 41L209 40M141 41L142 42L141 41M207.667 41.3333L208.333 41.6667L207.667 41.3333M285 41L286 42L285 41M329 41L330 42L329 41M19 42L20 43L19 42M144 42L145 43L144 42z"/>
<path style="fill:#1c1c1c; stroke:none;" d="M206 42L207 43L206 42z"/>
<path style="fill:#131313; stroke:none;" d="M287 42L288 43L287 42M18 43L19 44L18 43z"/>
<path style="fill:#1c1c1c; stroke:none;" d="M61 43L62 44L61 43z"/>
<path style="fill:#131313; stroke:none;" d="M145 43L146 44L145 43M203 43L204 44L203 43M59 44L60 45L59 44M147 44L148 45L147 44z"/>
<path style="fill:#1c1c1c; stroke:none;" d="M289 44L290 45L289 44z"/>
<path style="fill:#131313; stroke:none;" d="M290 44L291 45L290 44M17 45L18 46L17 45M58 45L59 46L58 45M146 45L147 46L146 45M200 45L201 46L200 45M332.333 45.6667L332.667 46.3333L332.333 45.6667z"/>
<path style="fill:#1c1c1c; stroke:none;" d="M16 46L17 47L16 46z"/>
<path style="fill:#131313; stroke:none;" d="M57 46L58 47L57 46M197 46L198 47L197 46M293 47L294 48L293 47M333 47L334 48L333 47M15.3333 48.6667L15.6667 49.3333L15.3333 48.6667z"/>
<path style="fill:#1c1c1c; stroke:none;" d="M55 48L56 49L55 48z"/>
<path style="fill:#131313; stroke:none;" d="M194 48L195 49L194 48M294 48L295 49L294 48z"/>
<path style="fill:#212121; stroke:none;" d="M54 49L55 50L54 49z"/>
<path style="fill:#131313; stroke:none;" d="M192 49L193 50L192 49z"/>
<path style="fill:#1c1c1c; stroke:none;" d="M193 49L194 50L193 49z"/>
<path style="fill:#131313; stroke:none;" d="M295 49L296 50L295 49M334 49L335 50L334 49z"/>
<path style="fill:#1c1c1c; stroke:none;" d="M53 50L54 51L53 50z"/>
<path style="fill:#131313; stroke:none;" d="M141 50L142 51L141 50M191 50L192 51L191 50z"/>
<path style="fill:#212121; stroke:none;" d="M335 50L336 51L335 50z"/>
<path style="fill:#131313; stroke:none;" d="M52 51L53 52L52 51M140 51L141 52L140 51M51 52L52 53L51 52M298 52L299 53L298 52z"/>
<path style="fill:#212121; stroke:none;" d="M336 52L337 53L336 52z"/>
<path style="fill:#131313; stroke:none;" d="M186 53L187 54L186 53M183 55L184 56L183 55M337 55L338 56L337 55M11 57L12 58L11 57M47 57L48 58L47 57M134 57L135 58L134 57M180 57L181 58L180 57M302 57L303 58L302 57M178 59L179 60L178 59M303 59L304 60L303 59M131 60L132 61L131 60M9.33333 61.6667L9.66667 62.3333L9.33333 61.6667z"/>
<path style="fill:#1c1c1c; stroke:none;" d="M130 61L131 62L130 61z"/>
<path style="fill:#131313; stroke:none;" d="M176 61L177 62L176 61M305 62L306 63L305 62M340 62L341 63L340 62M42.3333 64.6667L42.6667 65.3333L42.3333 64.6667z"/>
<path style="fill:#1c1c1c; stroke:none;" d="M306 64L307 65L306 64z"/>
<path style="fill:#131313; stroke:none;" d="M508 64L509 65L508 64z"/>
<path style="fill:#111111; stroke:none;" d="M461 79C449.359 80.3915 430.393 100.344 429 112C416.714 120.048 415.785 147.706 416.122 160.834C417.349 208.68 454.414 250.931 504.155 249.488C515.308 249.165 537.699 249.049 545 239L554 236L567 222L568 222C568 227.848 565.955 238.493 569.573 243.427C572.961 248.05 595.681 248.018 599.258 243.682C604.514 237.309 601 217.997 601 210L601 179C601.006 175.217 602.347 169.574 599.951 166.318C596.913 162.189 587.486 164 583 164L542 164C537.596 164 529.932 162.558 526.318 165.603C522.258 169.024 521.898 190.699 526.434 193.821C531.741 197.474 544.721 195 551 195L548 201L528 212C520.75 211.031 512.539 213.294 505 212.961C492.573 212.412 480.533 205.984 472.004 197.282C468.411 193.616 463.994 189.164 463 184L459 173L457 173L456.86 150.385L460 133L463 127L465 127L464 125C472.251 120.227 476.897 110.695 486.17 106.174C495.52 101.615 506.401 99.7191 516.759 100.794C521.837 101.321 526.988 103.63 532 103C533.906 106.533 541.557 108.961 544.972 111.806C551.562 117.294 554.641 124.325 560.167 130.361C562.341 132.736 565.23 134.071 567 131C575.815 131.512 589.376 124.372 597 120C593.732 106.436 580.31 82.256 565 80L564 77L554 74L554 72C528.764 68.2924 509.045 61.4281 483.156 68.6304C475.789 70.68 465.752 72.4568 461 79z"/>
<path style="fill:#131313; stroke:none;" d="M127 65L128 66L127 65M497 65L498 66L497 65M503 65L504 66L503 65M518 65L519 66L518 65M527 65L528 66L527 65M126 66L127 67L126 66M490 66L491 67L490 66M533 66L534 67L533 66M7 67L8 68L7 67M41 67L42 68L41 67M486 67L487 68L486 67M488 67L489 68L488 67M537 67L538 68L537 67z"/>
<path style="fill:#111111; stroke:none;" d="M918 125L916 125C916.355 115.106 907.157 103.598 900.999 96.5764C874.132 65.94 836.955 68 800 68L769 68C765.579 67.9947 760.088 66.7265 757.407 69.4074C754.727 72.0884 755.995 77.5788 756 81L756 112L756 201C756 214.027 754.431 228.047 755.63 240.956C756.406 249.318 776.03 246 782 246C808.989 246 839.092 249.895 864.911 240.55C898.75 228.303 919.807 198.612 921.772 163C922.501 149.777 918.246 137.792 918 125z"/>
<path style="fill:#131313; stroke:none;" d="M760 67L760 68L834 68L811 67L760 67z"/>
<path style="fill:#111111; stroke:none;" d="M1171 133C1154.41 116.751 1133.07 115.228 1112.01 122.638C1103.84 125.515 1092.49 131.141 1090 140C1084.96 141.045 1081.11 149.577 1079.1 154C1071.8 170.049 1073.79 186.162 1075 203L1080 216L1082 216C1082.56 223.795 1091.95 232.761 1098 237.123C1115.45 249.717 1157.4 259.737 1170 234L1171 234L1173 246C1180.78 245.499 1199.89 249.828 1205.85 244.316C1208.97 241.438 1208 235.802 1208 232L1208 200C1208 157.057 1204.89 112.799 1208 70L1206 68C1198.47 68.4847 1179.27 64.1683 1173.43 68.6929C1169.4 71.8192 1171 80.5504 1171 85L1171 133z"/>
<path style="fill:#131313; stroke:none;" d="M1176 67L1176 68L1205 69C1198.63 64.1739 1183.85 67 1176 67z"/>
<path style="fill:#212121; stroke:none;" d="M1204 67L1205 68L1204 67M1318 67L1319 68L1318 67z"/>
<path style="fill:#111111; stroke:none;" d="M1319 67C1313.5 72.9009 1315 80.1468 1315 88L1315 133C1293.35 110.71 1254.74 114.575 1234.43 137.265C1213.59 160.548 1210.93 200.944 1230.75 225.83C1248.44 248.05 1296.93 264.262 1315 233C1315.77 236.351 1314.65 241.972 1317.36 244.397C1322.96 249.413 1345.59 246.704 1352 244C1349.18 202.452 1352 159.671 1352 118C1352 103.757 1356.69 79.2193 1349 67L1319 67z"/>
<path style="fill:#131313; stroke:none;" d="M1320 67L1320 68L1347 68L1320 67M40.3333 68.6667L40.6667 69.3333L40.3333 68.6667M168 68L169 69L168 68M482.667 68.3333L483.333 68.6667L482.667 68.3333M757 68L758 69L757 68M843.667 68.3333L844.333 68.6667L843.667 68.3333M1318 68L1319 69L1318 68M1349 68L1350 69L1349 68M309 69L310 70L309 69M481 69L482 70L481 69M756 69L757 70L756 69M851 69L852 70L851 69M1206 69L1207 70L1206 69M1350 69L1351 70L1350 69M123 70L124 71L123 70M477 70L478 71L477 70M755 70L756 71L755 70M856 70L857 71L856 70M1171 70L1172 71L1171 70M310.333 71.6667L310.667 72.3333L310.333 71.6667M551 71L552 72L551 71M121.667 72.3333L122.333 72.6667L121.667 72.3333M163 72L164 73L163 72M552 72L553 73L552 72M755 72L755 240L756 240L756 122C756 107.962 760.406 84.8828 755 72M1207 72L1208 73L1207 72M5 73L6 74L5 73M554 73L555 74L554 73M864 73L864 74L867 74L864 73M344 74L345 75L344 74M868 74L869 75L868 74z"/>
<path style="fill:#1c1c1c; stroke:none;" d="M4 75L5 76L4 75z"/>
<path style="fill:#131313; stroke:none;" d="M465 75L466 76L465 75M559 75L560 76L559 75M4.33333 76.6667L4.66667 77.3333L4.33333 76.6667M118 76L119 77L118 76M463 76L464 77L463 76M873 76L874 77L873 76M345 77L346 78L345 77M562 77L563 78L562 77M158 78L159 79L158 78M460 78L461 79L460 78M564 78L565 79L564 78M877 78L878 79L877 78z"/>
<path style="fill:#1c1c1c; stroke:none;" d="M3 79L4 80L3 79z"/>
<path style="fill:#131313; stroke:none;" d="M313.333 79.6667L313.667 80.3333L313.333 79.6667M565 79L566 80L565 79M879 79L880 80L879 79M156 80L157 81L156 80M456 80L457 81L456 80z"/>
<path style="fill:#1c1c1c; stroke:none;" d="M568 80L569 81L568 80z"/>
<path style="fill:#131313; stroke:none;" d="M881 80L882 81L881 80M314 81L314 84L315 84L314 81M569 81L570 82L569 81M346 82L347 83L346 82M570 82L571 83L570 82M35 83L36 84L35 83M887 84L888 85L887 84M2 85L3 86L2 85M888 85L889 86L888 85M34.3333 86.6667L34.6667 87.3333L34.3333 86.6667z"/>
<path style="fill:#212121; stroke:none;" d="M151 86L152 87L151 86z"/>
<path style="fill:#131313; stroke:none;" d="M150 87L151 88L150 87M576 87L577 88L576 87M110 88L111 89L110 88M149 88L150 89L149 88M892 88L893 89L892 88M893 89L894 90L893 89M147 90L148 91L147 90M1 91L2 92L1 91M33.3333 91.6667L33.6667 92.3333L33.3333 91.6667M580 91L581 92L580 91M581 92L582 93L581 92M107.333 93.6667L107.667 94.3333L107.333 93.6667M316 93L317 94L316 93M348 93L349 94L348 93z"/>
<path style="fill:#111111; stroke:none;" d="M1488 93L1487 96L1488 97L1492 96L1492 107L1495 107C1495 101.996 1494.53 97.659 1500 96L1500 94L1488 93z"/>
<path style="fill:#131313; stroke:none;" d="M1489 93L1489 94L1500 94L1489 93M1502 93L1502 94L1507 94L1502 93z"/>
<path style="fill:#111111; stroke:none;" d="M1513 93L1513 96L1511 99L1508 94L1502 94L1502 108L1506 108L1506 100L1507 100C1508.43 106.572 1512.45 104.061 1514 99L1515 99L1514 108L1518 108L1518 94L1513 93z"/>
<path style="fill:#131313; stroke:none;" d="M1514 93L1514 94L1518 94L1514 93M1487 94L1488 95L1487 94M106 95L107 96L106 95M1512 95L1513 96L1512 95M1517 95L1517 107L1518 107L1517 95M438 96L439 97L438 96M900 96L901 97L900 96M1489 96L1489 97L1492 97L1489 96M1496 96L1496 97L1500 97L1496 96z"/>
<path style="fill:#212121; stroke:none;" d="M0 97L1 98L0 97z"/>
<path style="fill:#131313; stroke:none;" d="M32 97L33 98L32 97M1495 97C1495 100.987 1495.6 104.668 1492 107L1492 108C1496.76 106.419 1496.75 101.179 1495 97M1508 97L1509 98L1508 97M436 98L437 99L436 98M586 98L587 99L586 98M902 98L903 99L902 98M1505 98L1506 99L1505 98M1510 98L1511 99L1510 98M0 99L1 100L0 99M317 99L318 100L317 99z"/>
<path style="fill:#212121; stroke:none;" d="M435 99L436 100L435 99z"/>
<path style="fill:#131313; stroke:none;" d="M903 99L904 100L903 99M1514 99L1514 107L1515 107L1514 99M103 100L104 101L103 100M504 100L505 101L504 100M509.667 100.333L510.333 100.667L509.667 100.333M512 100L513 101L512 100M514 100L515 101L514 100M516 100L517 101L516 100M1506 100L1507 101L1506 100M1509 100L1510 101L1509 100M434 101L435 102L434 101M498 101L499 102L498 101M500 101L501 102L500 101M522 101L523 102L522 101M588 101L589 102L588 101M102 102L103 103L102 102z"/>
<path style="fill:#1c1c1c; stroke:none;" d="M139 102L140 103L139 102z"/>
<path style="fill:#131313; stroke:none;" d="M244 102L245 103L244 102z"/>
<path style="fill:#1c1c1c; stroke:none;" d="M317 102L318 103L317 102z"/>
<path style="fill:#131313; stroke:none;" d="M433 102L434 103L433 102M495.667 102.333L496.333 102.667L495.667 102.333M526 102L527 103L526 102M31 103L32 104L31 103z"/>
<path style="fill:#1c1c1c; stroke:none;" d="M101 103L102 104L101 103z"/>
<path style="fill:#131313; stroke:none;" d="M240 103L241 104L240 103M245 103L246 104L245 103z"/>
<path style="fill:#1c1c1c; stroke:none;" d="M247 103L248 104L247 103z"/>
<path style="fill:#131313; stroke:none;" d="M531 103L532 104L531 103z"/>
<path style="fill:#010101; stroke:none;" d="M794 103L794 210C813.369 210 837.33 213.953 855 204.51C888.547 186.582 890.537 132.02 859 111.105C840.606 98.9064 814.925 103 794 103z"/>
<path style="fill:#131313; stroke:none;" d="M837 103L838 104L837 103M839 103L840 104L839 103M533 104L534 105L533 104M590 104L591 105L590 104M843 104L844 105L843 104M31 105L32 106L31 105M431 105L432 106L431 105M487 105L488 106L487 105M535 105L536 106L535 105M907 105L908 106L907 105z"/>
<path style="fill:#1c1c1c; stroke:none;" d="M235 106L236 107L235 106z"/>
<path style="fill:#131313; stroke:none;" d="M349 106L349 109L350 109L349 106M484.667 106.333L485.333 106.667L484.667 106.333M537 106L538 107L537 106M849 106L850 107L849 106M99 107L100 108L99 107M234 107L235 108L234 107M430 107L431 108L430 107M852 107L853 108L852 107z"/>
<path style="fill:#212121; stroke:none;" d="M1495 107L1496 108L1495 107z"/>
<path style="fill:#131313; stroke:none;" d="M1503.67 107.333L1504.33 107.667L1503.67 107.333M1515.67 107.333L1516.33 107.667L1515.67 107.333M135 108L136 109L135 108M232 108L233 109L232 108M318 108L319 109L318 108M429 108L430 109L429 108M540 108L541 109L540 108M592 108L593 109L592 108M480 109L481 110L480 109M542 109L543 110L542 109M251 110L252 111L251 110M543 110L544 111L543 110M910 110L910 112L912 112L910 110M31 111L31 117L32 117L31 111z"/>
<path style="fill:#1c1c1c; stroke:none;" d="M227 111L228 112L227 111z"/>
<path style="fill:#131313; stroke:none;" d="M428 111L429 112L428 111M477 111L478 112L477 111M859 111L860 112L859 111M226 112L227 113L226 112M252 112L253 113L252 112M132 113L133 114L132 113M224 113L225 114L224 113M426 113L427 114L426 113M547 113L548 114L547 113M223 114L224 115L223 114M349 114L350 115L349 114M473 114L474 115L473 114M863 114L864 115L863 114z"/>
<path style="fill:#1c1c1c; stroke:none;" d="M95 115L96 116L95 115z"/>
<path style="fill:#131313; stroke:none;" d="M130.667 115.333L131.333 115.667L130.667 115.333M221 115L222 116L221 115M425 115L426 116L425 115M595 115L596 116L595 115z"/>
<path style="fill:#1c1c1c; stroke:none;" d="M219 116L220 117L219 116z"/>
<path style="fill:#131313; stroke:none;" d="M254 116L255 117L254 116M349 116L350 117L349 116M471 116L472 117L471 116M550 116L551 117L550 116M865.667 116.333L866.333 116.667L865.667 116.333M913 116L914 117L913 116M218 117L219 118L218 117M596 117L597 118L596 117z"/>
<path style="fill:#212121; stroke:none;" d="M866 117L867 118L866 117M914 117L915 118L914 117z"/>
<path style="fill:#131313; stroke:none;" d="M0 118L1 119L0 118M31 118L32 119L31 118M216 118L217 119L216 118z"/>
<path style="fill:#1c1c1c; stroke:none;" d="M470 118L471 119L470 118z"/>
<path style="fill:#111111; stroke:none;" d="M617 159C612.445 162.215 611.601 171.823 611.056 177.17C609.41 193.316 613.166 211.068 623.769 223.83C627.023 227.747 630.774 233.235 636 234C645.411 252.169 681.35 252.155 697.961 246.961C703.717 245.161 711.842 243.48 715 238C722.886 237.542 732.534 226.292 734 219C738.26 218.439 740.227 210.777 741.662 207C746.298 194.802 747.184 180.648 743.856 168C734.4 132.059 695.724 110.139 660 120.296C645.786 124.338 634.619 131.824 625 143C621.393 147.191 616.222 153.286 617 159z"/>
<path style="fill:#131313; stroke:none;" d="M673 118L674 119L673 118M681 118L682 119L681 118M914 118L915 119L914 118z"/>
<path style="fill:#111111; stroke:none;" d="M940 220L939 222L947 229C947.774 235.498 957.739 240.177 963 242.996C978.348 251.221 1019.75 256.014 1026 233L1027 233C1027 236.231 1026 241.687 1028.6 244.142C1032.64 247.947 1057.41 248.073 1061.49 244.397C1067.22 239.226 1064 221.116 1064 214L1064 153C1064 145.113 1066.15 133.427 1063.11 126.055C1060.64 120.087 1053.29 121 1048 121C1036.9 120.999 1027.01 119.316 1027 133C995.434 105.793 946.004 119.347 932.898 160.09C927.999 175.319 924.524 209.13 940 220z"/>
<path style="fill:#131313; stroke:none;" d="M984 118L985 119L984 118M994 118L995 119L994 118M999 118L1000 119L999 118M1127 118L1128 119L1127 118M1139 118L1140 119L1139 118M1143 118L1144 119L1143 118z"/>
<path style="fill:#212121; stroke:none;" d="M1270 118L1271 119L1270 118z"/>
<path style="fill:#131313; stroke:none;" d="M1272 118L1273 119L1272 118M1284 118L1285 119L1284 118M1286 118L1287 119L1286 118M215 119L216 120L215 119M553 119L554 120L553 119M692 119L693 120L692 119M1002 119L1003 120L1002 119M1004 119L1005 120L1004 119M1121 119L1122 120L1121 119M1147.67 119.333L1148.33 119.667L1147.67 119.333M1265 119L1266 120L1265 119M1289 119L1290 120L1289 119M1291.67 119.333L1292.33 119.667L1291.67 119.333M93.3333 120.667L93.6667 121.333L93.3333 120.667M213 120L214 121L213 120M468 120L469 121L468 120M595 120L596 121L595 120M659 120L660 121L659 120M695 120L696 121L695 120M869 120L870 121L869 120M973 120L974 121L973 120M1007 120L1008 121L1007 120M1117 120L1118 121L1117 120M1151 120L1152 121L1151 120M31 121L32 122L31 121z"/>
<path style="fill:#1c1c1c; stroke:none;" d="M211 121L212 122L211 121z"/>
<path style="fill:#131313; stroke:none;" d="M349 121L350 122L349 121M467 121L468 122L467 121M594 121L595 122L594 121z"/>
<path style="fill:#1c1c1c; stroke:none;" d="M655 121L656 122L655 121z"/>
<path style="fill:#131313; stroke:none;" d="M700 121L701 122L700 121M870 121L871 122L870 121M915 121L916 122L915 121M1009 121L1010 122L1009 121M1058 121L1059 122L1058 121M1114 121L1115 122L1114 121M1153.67 121.333L1154.33 121.667L1153.67 121.333M1258 121L1259 122L1258 121M1366 121L1367 122L1366 121z"/>
<path style="fill:#111111; stroke:none;" d="M1360 124C1360.73 133.73 1364.17 157.699 1372 164L1374 171L1379.05 191.536L1390.28 227L1397.28 244.258L1417 246C1414.15 254.759 1411.73 265.283 1401.42 267.891C1391.26 270.465 1382.66 259.174 1374.01 261.836C1369.07 263.36 1365.96 269.914 1363.43 274C1361.7 276.773 1359.18 280.122 1359.49 283.575C1360.12 290.81 1371.29 294.462 1376.96 296.535C1392.05 302.054 1410.75 301.211 1425 293.84C1430.39 291.049 1437.97 286.314 1439 280C1442.96 277.827 1445.01 274.519 1445 270C1451.87 264.945 1451.59 251.544 1454.47 244C1464.92 216.582 1472.24 186.365 1479.84 158C1481.86 150.479 1491.02 131.739 1487.14 124.569C1485.17 120.931 1479.53 121.046 1476 121.004C1468.25 120.911 1447.59 118.057 1450 131C1446.78 132.736 1446.15 138.735 1447 142L1440.78 160.222L1427 213C1419.67 202.863 1418.17 186.214 1414.44 174.285C1413.05 169.837 1412.8 162.887 1409 160C1410.57 152.487 1404.23 127.509 1397.67 122.938C1389.88 117.519 1367.95 120.012 1360 124z"/>
<path style="fill:#1c1c1c; stroke:none;" d="M1394 121L1395 122L1394 121z"/>
<path style="fill:#131313; stroke:none;" d="M1456 121L1457 122L1456 121M1482 121L1483 122L1482 121M210 122L211 123L210 122M318 122L319 123L318 122M555 122L556 123L555 122M916 122L917 123L916 122M1029.67 122.333L1030.33 122.667L1029.67 122.333z"/>
<path style="fill:#212121; stroke:none;" d="M1061 122L1062 123L1061 122z"/>
<path style="fill:#131313; stroke:none;" d="M1111 122L1111 123L1114 123L1111 122M1156 122L1157 123L1156 122M1300 122L1301 123L1300 122M1362 122L1363 123L1362 122M0 123L1 124L0 123M31 123L32 124L31 123M257.333 123.667L257.667 124.333L257.333 123.667M465 123L466 124L465 123z"/>
<path style="fill:#1c1c1c; stroke:none;" d="M590 123L591 124L590 123z"/>
<path style="fill:#131313; stroke:none;" d="M705 123L706 124L705 123M1062 123L1063 124L1062 123M1158 123L1159 124L1158 123M1254.67 123.333L1255.33 123.667L1254.67 123.333z"/>
<path style="fill:#212121; stroke:none;" d="M1451 123L1452 124L1451 123z"/>
<path style="fill:#131313; stroke:none;" d="M1452 123L1453 124L1452 123M1486 123L1487 124L1486 123M207 124L208 125L207 124M556 124L557 125L556 124M648 124L649 125L648 124M707 124L708 125L707 124M916 124L917 125L916 124M963 124L964 125L963 124M1251.67 124.333L1252.33 124.667L1251.67 124.333M1304 124L1305 125L1304 124M1399 124L1400 125L1399 124M125.333 125.667L125.667 126.333L125.333 125.667M205 125L206 126L205 125z"/>
<path style="fill:#212121; stroke:none;" d="M317 125L318 126L317 125z"/>
<path style="fill:#131313; stroke:none;" d="M349 125L350 126L349 125M464 125L465 126L464 125M557 125L558 126L557 125M583 125L584 126L583 125M646 125L647 126L646 125M709 125L710 126L709 125M1017 125L1018 126L1017 125M1063.33 125.667L1063.67 126.333L1063.33 125.667M1105.67 125.333L1106.33 125.667L1105.67 125.333M1305.67 125.333L1306.33 125.667L1305.67 125.333M1360 125L1361 126L1360 125z"/>
<path style="fill:#212121; stroke:none;" d="M1400 125L1401 126L1400 125z"/>
<path style="fill:#131313; stroke:none;" d="M0 126L1 127L0 126z"/>
<path style="fill:#212121; stroke:none;" d="M203 126L204 127L203 126z"/>
<path style="fill:#131313; stroke:none;" d="M204 126L205 127L204 126M317 126L318 127L317 126M421 126L422 127L421 126M581.667 126.333L582.333 126.667L581.667 126.333M644 126L645 127L644 126M711 126L712 127L711 126M917 126L918 127L917 126M960 126L961 127L960 126M1019 126L1020 127L1019 126M1163 126L1164 127L1163 126M1248.67 126.333L1249.33 126.667L1248.67 126.333M1307 126L1308 127L1307 126M203 127L204 128L203 127M463 127L464 128L463 127M579 127L580 128L579 127z"/>
<path style="fill:#1c1c1c; stroke:none;" d="M642 127L643 128L642 127z"/>
<path style="fill:#131313; stroke:none;" d="M90 128L91 129L90 128M259 128L260 129L259 128M317 128L318 129L317 128M576.667 128.333L577.333 128.667L576.667 128.333M641 128L642 129L641 128M714 128L715 129L714 128M918 128L919 129L918 128z"/>
<path style="fill:#1c1c1c; stroke:none;" d="M1026 128L1026 133L1027 133L1026 128z"/>
<path style="fill:#131313; stroke:none;" d="M1100 128L1101 129L1100 128M1245 128L1246 129L1245 128M0 129L1 130L0 129M199 129L200 130L199 129M462.333 129.667L462.667 130.333L462.333 129.667M574 129L575 130L574 129M875 129L876 130L875 129M955 129L956 130L955 129M1311 129L1312 130L1311 129M1401.33 129.667L1401.67 130.333L1401.33 129.667M197 130L198 131L197 130M260 130L261 131L260 130M560 130L561 131L560 130M638 130L639 131L638 130M918 130L919 131L918 130M1312 130L1313 131L1312 130M1360.33 130.667L1360.67 131.333L1360.33 130.667M1449 130L1450 131L1449 130M1487 130L1488 131L1487 130M123 131L124 132L123 131z"/>
<path style="fill:#212121; stroke:none;" d="M195 131L196 132L195 131z"/>
<path style="fill:#131313; stroke:none;" d="M196 131L197 132L196 131M561 131L562 132L561 131M567 131L568 132L567 131M569 131L570 132L569 131M876 131L877 132L876 131M1024 131L1025 132L1024 131M1241 131L1242 132L1241 131M1313 131L1314 132L1313 131M32.3333 132.667L32.6667 133.333L32.3333 132.667z"/>
<path style="fill:#1c1c1c; stroke:none;" d="M88 132L89 133L88 132z"/>
<path style="fill:#131313; stroke:none;" d="M317 132L318 133L317 132M635 132L636 133L635 132M720 132L721 133L720 132M919.333 132.667L919.667 133.333L919.333 132.667z"/>
<path style="fill:#212121; stroke:none;" d="M1239 132L1240 133L1239 132z"/>
<path style="fill:#131313; stroke:none;" d="M1240 132L1241 133L1240 132M1448 132L1449 133L1448 132M261 133L262 134L261 133M460 133L461 134L460 133M634 133L635 134L634 133M950 133L951 134L950 133M877 134L878 135L877 134M949 134L950 135L949 134M1237 134L1238 135L1237 134M1361 134L1362 135L1361 134M87.3333 135.667L87.6667 136.333L87.3333 135.667M121 135L122 136L121 135M189 135L190 136L189 135M1236 135L1237 136L1236 135M188 136L189 137L188 136M459 136L460 137L459 136M725 136L726 137L725 136M878 136L879 137L878 136M1403.33 136.667L1403.67 137.333L1403.33 136.667M33.3333 137.667L33.6667 138.333L33.3333 137.667M120 137L121 138L120 137M316 137L317 138L316 137M418 137L419 138L418 137M726 137L727 138L726 137M1362.33 137.667L1362.67 138.333L1362.33 137.667M86 138L87 139L86 138M185 138L186 139L185 138M727 138L728 139L727 138M1089.33 138.667L1089.67 139.333L1089.33 138.667z"/>
<path style="fill:#212121; stroke:none;" d="M1446 138L1447 139L1446 138z"/>
<path style="fill:#131313; stroke:none;" d="M263 139L264 140L263 139z"/>
<path style="fill:#1c1c1c; stroke:none;" d="M728 139L729 140L728 139z"/>
<path style="fill:#131313; stroke:none;" d="M920 139L921 140L920 139M944 139L945 140L944 139M119 140L120 141L119 140M181 140L182 141L181 140M627 140L628 141L627 140M943.333 140.667L943.667 141.333L943.333 140.667M1087 140L1088 141L1087 140M1232 140L1233 141L1232 140M33 141L34 142L33 141M347 141L348 142L347 141M626 141L627 142L626 141M1363 141L1364 142L1363 141M1446 141L1447 142L1446 141M1484 141L1485 142L1484 141M264.333 142.667L264.667 143.333L264.333 142.667M315 142L316 143L315 142M625 142L626 143L625 142M1086 142L1087 143L1086 142M1230 142L1231 143L1230 142M2.33333 143.667L2.66667 144.333L2.33333 143.667M34 143L35 144L34 143M85 143L86 144L85 143M118 143L119 144L118 143M177 143L178 144L177 143M457.333 143.667L457.667 144.333L457.333 143.667M624 143L625 144L624 143M880.333 143.667L880.667 144.333L880.333 143.667M921 143L921 146L922 146L921 143M1229 143L1230 144L1229 143M1445 143L1446 144L1445 143z"/>
<path style="fill:#1c1c1c; stroke:none;" d="M84 144L85 145L84 144z"/>
<path style="fill:#131313; stroke:none;" d="M346 144L347 145L346 144M732 144L733 145L732 144z"/>
<path style="fill:#1c1c1c; stroke:none;" d="M940 144L941 145L940 144M1084 144L1085 145L1084 144z"/>
<path style="fill:#131313; stroke:none;" d="M1364 144L1365 145L1364 144M34 145L35 146L34 145M173.667 145.333L174.333 145.667L173.667 145.333z"/>
<path style="fill:#1c1c1c; stroke:none;" d="M265 145L266 146L265 145z"/>
<path style="fill:#131313; stroke:none;" d="M1084 145L1085 146L1084 145M1482 145L1482 148L1483 148L1482 145M117 146L118 147L117 146M232 146L233 147L232 146M314.333 146.667L314.667 147.333L314.333 146.667M457 146L458 147L457 146M733 146L734 147L733 146M1083 146L1084 147L1083 146M1227.33 146.667L1227.67 147.333L1227.33 146.667M230 147L231 148L230 147M621 147L622 148L621 147M734 147L735 148L734 147M1365 147L1366 148L1365 147M1444 147L1445 148L1444 147M169 148L170 149L169 148M228 148L229 149L228 148M233 148L234 149L233 148M346 148L347 149L346 148M881 148L882 149L881 148M35 149L36 150L35 149M83 149L84 150L83 149M116 149L117 150L116 149M226 149L227 150L226 149M735 149L736 150L735 149M937 149L938 150L937 149M416 150L417 151L416 150M456 150L457 151L456 150M1225 150L1226 151L1225 150M1481.33 150.667L1481.67 151.333L1481.33 150.667M223 151L224 152L223 151M313 151L314 152L313 151M619 151L620 152L619 151M1080 151L1081 152L1080 151M167 152L168 153L167 152M737 152L738 153L737 152M998 152L999 153L998 152M1282 152L1283 153L1282 152M1289.67 152.333L1290.33 152.667L1289.67 152.333M1443 152L1444 153L1443 152M4 153L5 154L4 153M220 153L221 154L220 153M234 153L235 154L234 153M267 153L268 154L267 153M671 153L672 154L671 153M673 153L674 154L673 153z"/>
<path style="fill:#010101; stroke:none;" d="M674 153.465C634.791 160.471 644.62 221.328 684 213.904C720.95 206.937 710.893 146.872 674 153.465z"/>
<path style="fill:#131313; stroke:none;" d="M682 153L683 154L682 153M685 153L686 154L685 153M881.333 153.667L881.667 154.333L881.333 153.667z"/>
<path style="fill:#212121; stroke:none;" d="M994 153L995 154L994 153z"/>
<path style="fill:#010101; stroke:none;" d="M995 153.44C956.938 159.25 963.485 220.564 1002 214.561C1039.13 208.773 1032.84 147.664 995 153.44z"/>
<path style="fill:#131313; stroke:none;" d="M1002 153L1003 154L1002 153M1006 153L1007 154L1006 153M1134 153L1135 154L1134 153z"/>
<path style="fill:#010101; stroke:none;" d="M1136 153.518C1098.97 161.429 1110.89 222.626 1149 214.482C1185.88 206.603 1174 145.398 1136 153.518z"/>
<path style="fill:#1c1c1c; stroke:none;" d="M1148 153L1149 154L1148 153z"/>
<path style="fill:#131313; stroke:none;" d="M1278 153L1279 154L1278 153z"/>
<path style="fill:#010101; stroke:none;" d="M1281 153.468C1244.26 160.398 1254.08 221.006 1292 214.674C1329.64 208.389 1319.36 146.23 1281 153.468z"/>
<path style="fill:#1c1c1c; stroke:none;" d="M1442 153L1443 154L1442 153z"/>
<path style="fill:#131313; stroke:none;" d="M167 154L168 155L167 154M416 154L417 155L416 154M456 154L457 155L456 154M617 154L618 155L617 154M668.667 154.333L669.333 154.667L668.667 154.333z"/>
<path style="fill:#212121; stroke:none;" d="M686 154L687 155L686 154z"/>
<path style="fill:#131313; stroke:none;" d="M738 154L739 155L738 154M989 154L990 155L989 154M1008 154L1009 155L1008 154M1152.67 154.333L1153.33 154.667L1152.67 154.333M1223 154L1224 155L1223 154M1276 154L1277 155L1276 154M1442 154L1443 155L1442 154M37 155L37 158L38 158L37 155M168 155L169 156L168 155M267 155L268 156L267 155M666 155L667 156L666 155M691 155L691 157L693 157L691 155M986 155L987 156L986 155M1010 155L1011 156L1010 155M215 156L216 157L215 156z"/>
<path style="fill:#1c1c1c; stroke:none;" d="M881 156L882 157L881 156z"/>
<path style="fill:#131313; stroke:none;" d="M934 156L935 157L934 156M1222 156L1223 157L1222 156M1272 156L1273 157L1272 156M1301 156L1302 157L1301 156M81 157L82 158L81 157M344 157L345 158L344 157M693.667 157.333L694.333 157.667L693.667 157.333M982 157L983 158L982 157z"/>
<path style="fill:#212121; stroke:none;" d="M1013 157L1014 158L1013 157z"/>
<path style="fill:#131313; stroke:none;" d="M1014 157L1015 158L1014 157M1126 157L1127 158L1126 157M1270 157L1271 158L1270 157M1368 157L1369 158L1368 157M38 158L39 159L38 158M169 158L170 159L169 158M212 158L213 159L212 158M268 158L269 159L268 158M456 158L457 159L456 158M616 158L617 159L616 158M740 158L741 159L740 158M881.333 158.667L881.667 159.333L881.333 158.667M1269 158L1270 159L1269 158M1441 158L1442 159L1441 158M113 159L114 160L113 159M659 159L660 160L659 159M696 159L697 160L696 159M979 159L980 160L979 159M1161 159L1162 160L1161 159M1221.33 159.667L1221.67 160.333L1221.33 159.667M1409 159L1410 160L1409 159M80 160L81 161L80 160M112 160L113 161L112 160M236 160L237 161L236 160M343 160L344 161L343 160M658 160L659 161L658 160M1369 160L1370 161L1369 160M39 161L40 162L39 161M207 161L208 162L207 161M456 161L457 162L456 161M698.667 161.333L699.333 161.667L698.667 161.333M921.333 161.667L921.667 162.333L921.333 161.667M932 161L933 162L932 161M977 161L978 162L977 161M1163 161L1164 162L1163 161M310 162L311 163L310 162M416 162L417 163L416 162M655.333 162.667L655.667 163.333L655.333 162.667z"/>
<path style="fill:#1c1c1c; stroke:none;" d="M699 162L700 163L699 162z"/>
<path style="fill:#131313; stroke:none;" d="M1120 162L1121 163L1120 162M1164 162L1165 163L1164 162M1264 162L1265 163L1264 162M39 163L40 164L39 163M112 163L113 164L112 163M172 163L173 164L172 163M204 163L205 164L204 163M237.333 163.667L237.667 164.333L237.333 163.667M700 163L701 164L700 163M742 163L743 164L742 163M881 163L882 164L881 163M975 163L976 164L975 163M1020 163L1021 164L1020 163M1309 163L1310 164L1309 163M1440 163L1441 164L1440 163M7.33333 164.667L7.66667 165.333L7.33333 164.667M40.3333 164.667L40.6667 165.333L40.3333 164.667M309 164L310 165L309 164M342 164L343 165L342 164M613 164L613 167L614 167L613 164M931 164L932 165L931 164M974 164L975 165L974 164M1021 164L1022 165L1021 164M1075 164L1076 165L1075 164M1262 164L1263 165L1262 164M1371 164L1372 165L1371 164M79 165L79 168L80 168L79 165M111 165L112 166L111 165M174.333 165.667L174.667 166.333L174.333 165.667M525 165L526 166L525 165M1022 165L1023 166L1022 165M1219.33 165.667L1219.67 166.333L1219.33 165.667M1310 165L1311 166L1310 165M1439 165L1440 166L1439 165M1477 165L1478 166L1477 165z"/>
<path style="fill:#1c1c1c; stroke:none;" d="M7 166L8 167L7 166z"/>
<path style="fill:#131313; stroke:none;" d="M416.333 166.667L416.667 167.333L416.333 166.667M524 166L525 167L524 166M600 166L601 167L600 166z"/>
<path style="fill:#1c1c1c; stroke:none;" d="M743 166L744 167L743 166z"/>
<path style="fill:#131313; stroke:none;" d="M921 166L921 170L922 170L921 166M973 166L974 167L973 166M1023 166L1024 167L1023 166M1411 166L1412 167L1411 166M1476 166L1476 169L1477 169L1476 166M111 167L112 168L111 167M238 167L239 168L238 167M270 167L271 168L270 167M612.333 167.667L612.667 168.333L612.333 167.667M1167.67 167.333L1168.33 167.667L1167.67 167.333M1261 167L1262 168L1261 167z"/>
<path style="fill:#212121; stroke:none;" d="M1371 167L1372 168L1371 167z"/>
<path style="fill:#131313; stroke:none;" d="M1412 167L1413 168L1412 167M457 168L458 169L457 168M1438.33 168.667L1438.67 169.333L1438.33 168.667M8 169L9 170L8 169M110 169L111 170L110 169M238 169L239 170L238 169M270 169L270 172L271 172L270 169M340 169L341 170L340 169M930 169L930 172L931 172L930 169M1074 169L1074 172L1075 172L1074 169z"/>
<path style="fill:#1c1c1c; stroke:none;" d="M1168 169L1169 170L1168 169z"/>
<path style="fill:#131313; stroke:none;" d="M42 170L43 171L42 170M457 170L458 171L457 170M601 170L601 241L602 241L602 192L601 170z"/>
<path style="fill:#212121; stroke:none;" d="M744 170L745 171L744 170z"/>
<path style="fill:#131313; stroke:none;" d="M9 171L10 172L9 171M177 171L178 172L177 171M307 171L308 172L307 171M340 171L341 172L340 171M650 171L651 172L650 171M705 171L706 172L705 171M880 171L881 172L880 171M970.333 171.667L970.667 172.333L970.333 171.667M1259 171L1260 172L1259 171M1373 171L1374 172L1373 171M78 172L79 173L78 172M457 172L458 173L457 172M611 172L612 173L611 172M1437 172L1438 173L1437 172z"/>
<path style="fill:#212121; stroke:none;" d="M1475 172L1476 173L1475 172z"/>
<path style="fill:#131313; stroke:none;" d="M10 173L11 174L10 173M306 173L307 174L306 173z"/>
<path style="fill:#1c1c1c; stroke:none;" d="M970 173L971 174L970 173z"/>
<path style="fill:#131313; stroke:none;" d="M1114 173L1115 174L1114 173M1170.33 173.667L1170.67 174.333L1170.33 173.667M1314 173L1315 174L1314 173M1413 173L1414 174L1413 173M109 174L110 175L109 174M186 174L187 175L186 174M305.333 174.667L305.667 175.333L305.333 174.667M458 174L459 175L458 174M611 174L612 175L611 174M706 174L707 175L706 174M879 174L880 175L879 174M929 174L929 177L930 177L929 174M969 174L970 175L969 174M1026.33 174.667L1026.67 175.333L1026.33 174.667M1315 174L1315 177L1316 177L1315 174M1414 174L1415 175L1414 174M1437 174L1438 175L1437 174M10 175L11 176L10 175M183.667 175.333L184.333 175.667L183.667 175.333M417.333 175.667L417.667 176.333L417.333 175.667M878 175L879 176L878 175z"/>
<path style="fill:#1c1c1c; stroke:none;" d="M1073 175L1074 176L1073 175z"/>
<path style="fill:#131313; stroke:none;" d="M11 176L12 177L11 176M271 176L272 177L271 176z"/>
<path style="fill:#1c1c1c; stroke:none;" d="M459 176L460 177L459 176z"/>
<path style="fill:#131313; stroke:none;" d="M969 176L970 177L969 176M1027 176L1028 177L1027 176M1073.33 176.667L1073.67 177.333L1073.33 176.667M1113 176L1114 177L1113 176M1257 176L1258 177L1257 176M1436 176L1437 177L1436 176M44 177L45 178L44 177M304 177L305 178L304 177M648.333 177.667L648.667 178.333L648.333 177.667M745 177L746 178L745 177M418 178L419 179L418 178M919 178L920 179L919 178M1113 178L1114 179L1113 178M1171 178L1172 179L1171 178z"/>
<path style="fill:#212121; stroke:none;" d="M1217 178L1218 179L1217 178z"/>
<path style="fill:#131313; stroke:none;" d="M1257 178L1258 179L1257 178M1315 178L1316 179L1315 178M337 179L338 180L337 179z"/>
<path style="fill:#212121; stroke:none;" d="M460 179L461 180L460 179z"/>
<path style="fill:#131313; stroke:none;" d="M877 179L878 180L877 179M1217 179L1218 180L1217 179M12 180L13 181L12 180M303 180L304 181L303 180M610.333 180.667L610.667 181.333L610.333 180.667M648 180L649 181L648 180M745 180L746 181L745 180M919 180L920 181L919 180M1027.33 180.667L1027.67 181.333L1027.33 180.667M1435 180L1436 181L1435 180z"/>
<path style="fill:#1c1c1c; stroke:none;" d="M302 181L303 182L302 181z"/>
<path style="fill:#131313; stroke:none;" d="M418 181L419 182L418 181M929 181L930 182L929 181M968 181L969 182L968 181M1217 181L1218 182L1217 181M1376 181L1377 182L1376 181M1416 181L1417 182L1416 181M47 182L48 183L47 182M272 182L273 183L272 182M461.333 182.667L461.667 183.333L461.333 182.667M745 182L746 183L745 182M1073 182L1074 183L1073 182M1472 182L1473 183L1472 182M13 183L14 184L13 183M875 183L876 184L875 183M1217 183L1218 184L1217 183M1257.33 183.667L1257.67 184.333L1257.33 183.667z"/>
<path style="fill:#1c1c1c; stroke:none;" d="M1376 183L1377 184L1376 183z"/>
<path style="fill:#131313; stroke:none;" d="M1434 183L1435 184L1434 183M48 184L49 185L48 184M335.333 184.667L335.667 185.333L335.333 184.667M419 184L420 185L419 184M610 184L611 185L610 184M1471.33 184.667L1471.67 185.333L1471.33 184.667M108 185L109 186L108 185M241 185L242 186L241 185M272 185L273 186L272 185M462 185L463 186L462 185M1027 185L1027 188L1028 188L1027 185M1073 185L1074 186L1073 185M1434 185L1435 186L1434 185M14 186L15 187L14 186M463 186L464 187L463 186M610 186L611 187L610 186M968 186L969 187L968 186M1217 186L1218 187L1217 186M77 187L78 188L77 187M300 187L301 188L300 187M420 187L421 188L420 187M648 187L649 188L648 187M917 187L918 188L917 187M1073.33 187.667L1073.67 188.333L1073.33 187.667M1433 187L1434 188L1433 187M1470.33 187.667L1470.67 188.333L1470.33 187.667M108 188L109 189L108 188M464 188L465 189L464 188M708 188L709 189L708 188M1418 188L1419 189L1418 188M648.333 189.667L648.667 190.333L648.333 189.667M707.333 189.667L707.667 190.333L707.333 189.667M745 189L746 190L745 189M929 189L930 190L929 189M1113 189L1114 190L1113 189M1171 189L1172 190L1171 189M1315 189L1316 190L1315 189M108 190L109 191L108 190M241 190L242 191L241 190M272 190L273 191L272 190M332 191L333 192L332 191M421 191L422 192L421 191z"/>
<path style="fill:#1c1c1c; stroke:none;" d="M745 191L746 192L745 191z"/>
<path style="fill:#131313; stroke:none;" d="M1073 191L1074 192L1073 191M1379 191L1380 192L1379 191M1432 191L1433 192L1432 191M52 192L53 193L52 192M297 192L298 193L297 192M524 192L525 193L524 192M869 192L870 193L869 192M915 192L916 193L915 192M929.333 192.667L929.667 193.333L929.333 192.667z"/>
<path style="fill:#1c1c1c; stroke:none;" d="M1026 192L1027 193L1026 192z"/>
<path style="fill:#131313; stroke:none;" d="M1469 192L1470 193L1469 192M108 193L109 194L108 193M241 193L242 194L241 193M611 193L612 194L611 193z"/>
<path style="fill:#212121; stroke:none;" d="M706 193L707 194L706 193z"/>
<path style="fill:#131313; stroke:none;" d="M296 194L297 195L296 194M422 194L423 195L422 194z"/>
<path style="fill:#1c1c1c; stroke:none;" d="M526 194L527 195L526 194z"/>
<path style="fill:#131313; stroke:none;" d="M1026 194L1027 195L1026 194M1074 194L1075 195L1074 194M1380 194L1381 195L1380 194z"/>
<path style="fill:#1c1c1c; stroke:none;" d="M76 195L77 196L76 195z"/>
<path style="fill:#131313; stroke:none;" d="M108 195L108 201L109 201L108 195M241 195L241 201L242 201L241 195M469 195L470 196L469 195M744 195L744 198L745 198L744 195M914 195L915 196L914 195M1420.33 195.667L1420.67 196.333L1420.33 195.667M54 196L55 197L54 196M76 196L77 197L76 196M423 196L424 197L423 196M650.333 196.667L650.667 197.333L650.333 196.667M1115 196L1116 197L1115 196M1169 196L1170 197L1169 196M1218 196L1219 197L1218 196M1431 196L1432 197L1431 196z"/>
<path style="fill:#1c1c1c; stroke:none;" d="M1468 196L1469 197L1468 196z"/>
<path style="fill:#131313; stroke:none;" d="M272 197L273 198L272 197M705 197L706 198L705 197M865 197L866 198L865 197M913 197L914 198L913 197M971.333 197.667L971.667 198.333L971.333 197.667M55 198L56 199L55 198M548 198L549 199L548 198M704.333 198.667L704.667 199.333L704.333 198.667M863 198L864 199L863 198M1260 198L1261 199L1260 198M1430 198L1431 199L1430 198M76 199L77 200L76 199M293 199L294 200L293 199z"/>
<path style="fill:#1c1c1c; stroke:none;" d="M329 199L330 200L329 199z"/>
<path style="fill:#131313; stroke:none;" d="M424 199L425 200L424 199M743.333 199.667L743.667 200.333L743.333 199.667M912 199L913 200L912 199M930 199L931 200L930 199M1312.33 199.667L1312.67 200.333L1312.33 199.667M1381 199L1382 200L1381 199M328 200L329 201L328 200M473 200L474 201L473 200M546.667 200.333L547.333 200.667L546.667 200.333M1023 200L1024 201L1023 200M1075.33 200.667L1075.67 201.333L1075.33 200.667z"/>
<path style="fill:#1c1c1c; stroke:none;" d="M1167 200L1168 201L1167 200z"/>
<path style="fill:#131313; stroke:none;" d="M57.3333 201.667L57.6667 202.333L57.3333 201.667z"/>
<path style="fill:#1c1c1c; stroke:none;" d="M76 201L77 202L76 201M328 201L329 202L328 201z"/>
<path style="fill:#131313; stroke:none;" d="M425 201L426 202L425 201M475 201L476 202L475 201M545 201L546 202L545 201M911 201L912 202L911 201M1382 201L1383 202L1382 201M108.333 202.667L108.667 203.333L108.333 202.667M241 202L242 203L241 202M291 202L292 203L291 202M476 202L477 203L476 202M613.333 202.667L613.667 203.333L613.333 202.667M1118 202L1119 203L1118 202M1422.33 202.667L1422.67 203.333L1422.33 202.667M1429 202L1430 203L1429 202M22 203L23 204L22 203M272 203L273 204L272 203z"/>
<path style="fill:#1c1c1c; stroke:none;" d="M327 203L328 204L327 203z"/>
<path style="fill:#131313; stroke:none;" d="M701 203L702 204L701 203M856 203L857 204L856 203z"/>
<path style="fill:#212121; stroke:none;" d="M910 203L911 204L910 203z"/>
<path style="fill:#131313; stroke:none;" d="M1076 203L1077 204L1076 203M59 204L60 205L59 204M290 204L291 205L290 204M655 204L656 205L655 204M742 204L743 205L742 204M909 204L910 205L909 204M975 204L976 205L975 204z"/>
<path style="fill:#212121; stroke:none;" d="M1020 204L1021 205L1020 204z"/>
<path style="fill:#131313; stroke:none;" d="M1383 204L1384 205L1383 204M23 205L24 206L23 205M241 205L242 206L241 205M272 205L272 211L273 211L272 205M289 205L290 206L289 205z"/>
<path style="fill:#1c1c1c; stroke:none;" d="M326 205L327 206L326 205z"/>
<path style="fill:#131313; stroke:none;" d="M539 205L540 206L539 205z"/>
<path style="fill:#1c1c1c; stroke:none;" d="M699 205L700 206L699 205z"/>
<path style="fill:#131313; stroke:none;" d="M1076 205L1077 206L1076 205M1120 205L1121 206L1120 205M1164 205L1165 206L1164 205M1220 205L1221 206L1220 205M1308 205L1309 206L1308 205M1465.33 205.667L1465.67 206.333L1465.33 205.667M60 206L61 207L60 206M428 206L429 207L428 206M481 206L482 207L481 206M538 206L539 207L538 206M698 206L699 207L698 206M850.667 206.333L851.333 206.667L850.667 206.333M976.667 206.333L977.333 206.667L976.667 206.333M1163 206L1164 207L1163 206M24 207L25 208L24 207M108 207L109 208L108 207M429.333 207.667L429.667 208.333L429.333 207.667M536 207L537 208L536 207M658 207L659 208L658 207M741 207L742 208L741 207M1077.33 207.667L1077.67 208.333L1077.33 207.667M1306.33 207.667L1306.67 208.333L1306.33 207.667M1384 207L1385 208L1384 207M1428 207L1429 208L1428 207M1464 207L1464 210L1465 210L1464 207z"/>
<path style="fill:#1c1c1c; stroke:none;" d="M287 208L288 209L287 208z"/>
<path style="fill:#131313; stroke:none;" d="M534.667 208.333L535.333 208.667L534.667 208.333M844 208L845 209L844 208M933.333 208.667L933.667 209.333L933.333 208.667z"/>
<path style="fill:#1c1c1c; stroke:none;" d="M1016 208L1017 209L1016 208z"/>
<path style="fill:#131313; stroke:none;" d="M1161 208L1162 209L1161 208M1221 208L1222 209L1221 208M25 209L26 210L25 209M287 209L288 210L287 209M430 209L431 210L430 209M531 209L532 210L531 209M615 209L616 210L615 209z"/>
<path style="fill:#1c1c1c; stroke:none;" d="M661 209L662 210L661 209z"/>
<path style="fill:#131313; stroke:none;" d="M695 209L696 210L695 209M841.667 209.333L842.333 209.667L841.667 209.333M980 209L981 210L980 209M1015 209L1016 210L1015 209M1222 209L1223 210L1222 209M1304 209L1305 210L1304 209M1424.33 209.667L1424.67 210.333L1424.33 209.667M26.3333 210.667L26.6667 211.333L26.3333 210.667M286 210L287 211L286 210M323 210L324 211L323 210M529 210L530 211L529 210M834 210L835 211L834 210M905 210L906 211L905 210M982 210L983 211L982 210M1078.33 210.667L1078.67 211.333L1078.33 210.667M1158 210L1159 211L1158 210M1270 210L1271 211L1270 210M1303 210L1304 211L1303 210z"/>
<path style="fill:#212121; stroke:none;" d="M285 211L286 212L285 211z"/>
<path style="fill:#131313; stroke:none;" d="M322.333 211.667L322.667 212.333L322.333 211.667M431 211L432 212L431 211M495.667 211.333L496.333 211.667L495.667 211.333M527 211L528 212L527 211M739.333 211.667L739.667 212.333L739.333 211.667M904 211L905 212L904 211M934 211L935 212L934 211M983 211L984 212L983 211M1271 211L1272 212L1271 211z"/>
<path style="fill:#212121; stroke:none;" d="M1272 211L1273 212L1272 211z"/>
<path style="fill:#131313; stroke:none;" d="M1385 211L1386 212L1385 211M1427 211L1428 212L1427 211M77 212L78 213L77 212z"/>
<path style="fill:#212121; stroke:none;" d="M240 212L241 213L240 212z"/>
<path style="fill:#131313; stroke:none;" d="M272.333 212.667L272.667 213.333L272.333 212.667M285 212L286 213L285 212M432 212L433 213L432 212M500.667 212.333L501.333 212.667L500.667 212.333z"/>
<path style="fill:#212121; stroke:none;" d="M519 212L520 213L519 212z"/>
<path style="fill:#131313; stroke:none;" d="M521 212L522 213L521 212M523 212L524 213L523 212z"/>
<path style="fill:#1c1c1c; stroke:none;" d="M904 212L905 213L904 212M986 212L987 213L986 212z"/>
<path style="fill:#131313; stroke:none;" d="M1011 212L1012 213L1011 212M1223 212L1224 213L1223 212z"/>
<path style="fill:#212121; stroke:none;" d="M1274 212L1275 213L1274 212z"/>
<path style="fill:#131313; stroke:none;" d="M1299 212L1300 213L1299 212M65.3333 213.667L65.6667 214.333L65.3333 213.667M240 213L241 214L240 213M433.333 213.667L433.667 214.333L433.333 213.667M516 213L517 214L516 213M617 213L618 214L617 213M668 213L669 214L668 213M686.667 213.333L687.333 213.667L686.667 213.333M1079 213L1080 214L1079 213M1152.67 213.333L1153.33 213.667L1152.67 213.333z"/>
<path style="fill:#1c1c1c; stroke:none;" d="M1223 213L1224 214L1223 213z"/>
<path style="fill:#131313; stroke:none;" d="M1275.67 213.333L1276.33 213.667L1275.67 213.333z"/>
<path style="fill:#1c1c1c; stroke:none;" d="M1296 213L1297 214L1296 213z"/>
<path style="fill:#131313; stroke:none;" d="M1298 213L1299 214L1298 213M28 214L29 215L28 214M283.667 214.333L284.333 214.667L283.667 214.333M618.333 214.667L618.667 215.333L618.333 214.667M671 214L672 215L671 214M673 214L674 215L673 214M675.667 214.333L676.333 214.667L675.667 214.333z"/>
<path style="fill:#1c1c1c; stroke:none;" d="M680 214L681 215L680 214z"/>
<path style="fill:#131313; stroke:none;" d="M682 214L683 215L682 214M738 214L739 215L738 214z"/>
<path style="fill:#212121; stroke:none;" d="M935 214L936 215L935 214z"/>
<path style="fill:#131313; stroke:none;" d="M992 214L993 215L992 214z"/>
<path style="fill:#212121; stroke:none;" d="M1002 214L1003 215L1002 214z"/>
<path style="fill:#131313; stroke:none;" d="M1004 214L1005 215L1004 214M1080 214L1081 215L1080 214M1134 214L1135 215L1134 214M1278 214L1279 215L1278 214M1294 214L1295 215L1294 214M1386.33 214.667L1386.67 215.333L1386.33 214.667M77 215L78 216L77 215M109 215L110 216L109 215M320 215L321 216L320 215M434 215L435 216L434 215M1142 215L1143 216L1142 215M1224 215L1225 216L1224 215M1286.67 215.333L1287.33 215.667L1286.67 215.333M1289.67 215.333L1290.33 215.667L1289.67 215.333M29 216L30 217L29 216M67 216L68 217L67 216M435 216L436 217L435 216z"/>
<path style="fill:#1c1c1c; stroke:none;" d="M936 216L937 217L936 216z"/>
<path style="fill:#131313; stroke:none;" d="M1081 216L1082 217L1081 216M281 217L282 218L281 217M899 217L900 218L899 217M937 217L938 218L937 217z"/>
<path style="fill:#1c1c1c; stroke:none;" d="M1225 217L1226 218L1225 217z"/>
<path style="fill:#131313; stroke:none;" d="M1387.33 217.667L1387.67 218.333L1387.33 217.667M78 218L79 219L78 218M280 218L281 219L280 218M31 219L32 220L31 219M69 219L70 220L69 219M437 219L438 220L437 219M734.333 219.667L734.667 220.333L734.333 219.667M1082 219L1083 220L1082 219M70 220L71 221L70 220M110.333 220.667L110.667 221.333L110.333 220.667M279 220L280 221L279 220M939 220L940 221L939 220M1461 220L1462 221L1461 220M32 221L33 222L32 221M71 221L72 222L71 221M78 221L79 222L78 221M239 221L240 222L239 221z"/>
<path style="fill:#1c1c1c; stroke:none;" d="M271 221L272 222L271 221z"/>
<path style="fill:#131313; stroke:none;" d="M439 221L440 222L439 221z"/>
<path style="fill:#212121; stroke:none;" d="M896 221L897 222L896 221z"/>
<path style="fill:#131313; stroke:none;" d="M1388 221L1389 222L1388 221M316 222L317 223L316 222M440 222L441 223L440 222M567 222L568 223L567 222M733 222L734 223L733 222M940 222L941 223L940 222z"/>
<path style="fill:#1c1c1c; stroke:none;" d="M1228 222L1229 223L1228 222z"/>
<path style="fill:#131313; stroke:none;" d="M110 223L111 224L110 223z"/>
<path style="fill:#1c1c1c; stroke:none;" d="M276 223L277 224L276 223z"/>
<path style="fill:#131313; stroke:none;" d="M623 223L624 224L623 223M1085 223L1086 224L1085 223M34 224L35 225L34 224M73 224L74 225L73 224M238.333 224.667L238.667 225.333L238.333 224.667M442 224L443 225L442 224M566 224L567 225L566 224M624 224L625 225L624 224M892 224L893 225L892 224M1086.33 224.667L1086.67 225.333L1086.33 224.667M1389 224L1390 225L1389 224M74 225L75 226L74 225M111 225L112 226L111 225M270.333 225.667L270.667 226.333L270.333 225.667M275 225L276 226L275 225M314 225L315 226L314 225M1459.33 225.667L1459.67 226.333L1459.33 225.667M75 226L76 227L75 226M79 226L80 227L79 226M274 226L275 227L274 226M564 226L565 227L564 226M626 226L627 227L626 226M943 226L944 227L943 226M1087 226L1088 227L1087 226z"/>
<path style="fill:#212121; stroke:none;" d="M313 227L314 228L313 227z"/>
<path style="fill:#1c1c1c; stroke:none;" d="M729 227L730 228L729 227M889 227L890 228L889 227z"/>
<path style="fill:#131313; stroke:none;" d="M1088 227L1089 228L1088 227M1390 227L1391 228L1390 227M76 228L77 229L76 228z"/>
<path style="fill:#1c1c1c; stroke:none;" d="M79 228L80 229L79 228z"/>
<path style="fill:#131313; stroke:none;" d="M111 228L112 229L111 228M272 228L273 229L272 228M562 228L563 229L562 228M887 228L888 229L887 228M1233 228L1234 229L1233 228M112 229L112 232L113 232L112 229M269 229L270 230L269 229M311 229L312 230L311 229M447 229L448 230L447 229M945.667 229.333L946.333 229.667L945.667 229.333M1234 229L1235 230L1234 229M1458.33 229.667L1458.67 230.333L1458.33 229.667M271 230L272 231L271 230M310.333 230.667L310.667 231.333L310.333 230.667z"/>
<path style="fill:#1c1c1c; stroke:none;" d="M448 230L449 231L448 230z"/>
<path style="fill:#131313; stroke:none;" d="M449 230L450 231L449 230z"/>
<path style="fill:#212121; stroke:none;" d="M560 230L561 231L560 230z"/>
<path style="fill:#131313; stroke:none;" d="M726 230L727 231L726 230M882 231L883 232L882 231M947 231L948 232L947 231M1391 231L1392 232L1391 231M632 232L633 233L632 232M724 232L725 233L724 232M881 232L882 233L881 232M308 233L309 234L308 233M452 233L453 234L452 233M879 233L880 234L879 233z"/>
<path style="fill:#1c1c1c; stroke:none;" d="M880 233L881 234L880 233z"/>
<path style="fill:#131313; stroke:none;" d="M949 233L950 234L949 233M1026 233L1027 234L1026 233M1238 233L1239 234L1238 233M1314 233L1315 241L1316 241L1314 233M554 234L555 235L554 234M635.333 234.667L635.667 235.333L635.333 234.667M878 234L879 235L878 234M1025 234L1026 235L1025 234M1392 234L1393 235L1392 234M114 235L115 236L114 235M552 235L551 237L552 235M720 235L721 236L720 235M876 235L877 236L876 235M306 236L307 237L306 236z"/>
<path style="fill:#212121; stroke:none;" d="M552 236L553 237L552 236z"/>
<path style="fill:#131313; stroke:none;" d="M873.667 236.333L874.333 236.667L873.667 236.333M1168 236L1169 237L1168 236M43 237L44 238L43 237M305 237L306 238L305 237M550 237L551 238L550 237M717 237L718 238L717 237M872 237L873 238L872 237M1098 237L1099 238L1098 237M1243 237L1244 238L1243 237M1393 237L1394 238L1393 237M44 238L45 239L44 238M115 238L116 239L115 238M234 238L235 239L234 238M639 238L640 239L639 238M715 238L716 239L715 238M868 238L868 239L871 239L868 238M1100 238L1101 239L1100 238M1244 238L1245 239L1244 238M545.333 239.667L545.667 240.333L545.333 239.667M641 239L642 240L641 239M1101 239L1102 240L1101 239M1165 239L1166 240L1165 239M233 240L234 241L233 240M303 240L304 241L303 240M1163 240L1164 241L1163 240M1394 240L1395 241L1394 240M466 241L467 242L466 241M542 241L543 242L542 241M861 241L862 242L861 241z"/>
<path style="fill:#212121; stroke:none;" d="M862 241L863 242L862 241z"/>
<path style="fill:#131313; stroke:none;" d="M960 241L961 242L960 241M1063.33 241.667L1063.67 242.333L1063.33 241.667M1104 241L1105 242L1104 241M1249 241L1250 242L1249 241M1351 241L1352 242L1351 241M117.333 242.667L117.667 243.333L117.333 242.667M302 242L303 243L302 242z"/>
<path style="fill:#1c1c1c; stroke:none;" d="M468 242L469 243L468 242z"/>
<path style="fill:#131313; stroke:none;" d="M469 242L470 243L469 242M540 242L541 243L540 242M568 242L569 243L568 242M600.333 242.667L600.667 243.333L600.333 242.667M709 242L710 243L709 242M755 242L756 243L755 242M857 242L858 243L857 242M1106 242L1107 243L1106 242M1171 242L1172 245L1173 245L1171 242M48 243L49 244L48 243M537 243L538 244L537 243M706 243L707 244L706 243M964 243L965 244L964 243z"/>
<path style="fill:#212121; stroke:none;" d="M1171 243L1172 244L1171 243M118 244L119 245L118 244z"/>
<path style="fill:#131313; stroke:none;" d="M231 244L232 245L231 244M534.667 244.333L535.333 244.667L534.667 244.333M570 244L571 245L570 244M599 244L600 245L599 244M705 244L706 245L705 244M847 244L848 245L847 244M850 244L851 245L850 244z"/>
<path style="fill:#212121; stroke:none;" d="M1062 244L1063 245L1062 244z"/>
<path style="fill:#131313; stroke:none;" d="M1110.67 244.333L1111.33 244.667L1110.67 244.333M1157 244L1158 245L1157 244M1206 244L1207 245L1206 244z"/>
<path style="fill:#1c1c1c; stroke:none;" d="M1254 244L1255 245L1254 244M1316 244L1317 245L1316 244M1396 244L1397 245L1396 244z"/>
<path style="fill:#131313; stroke:none;" d="M1454 244L1455 245L1454 244M598 245L599 246L598 245M701 245L702 246L701 245M757 245L758 246L757 245M839 245L840 246L839 245M1011 245L1012 246L1011 245M1029.67 245.333L1030.33 245.667L1029.67 245.333M1112 245L1113 246L1112 245M1174 245L1175 246L1174 245M1203 245L1204 246L1203 245M1205 245L1206 246L1205 245M1258 245L1259 246L1258 245M1348.67 245.333L1349.33 245.667L1348.67 245.333M1398 245L1399 246L1398 245M1453 245L1453 248L1454 248L1453 245M50 246L51 247L50 246M119 246L120 247L119 246M482 246L483 247L482 246M527 246L527 247L530 247L527 246M656 246L657 247L656 246M699 246L700 247L699 246M1115 246L1116 247L1115 246M1153 246L1154 247L1153 246z"/>
<path style="fill:#212121; stroke:none;" d="M1259 246L1260 247L1259 246z"/>
<path style="fill:#131313; stroke:none;" d="M1260 246L1261 247L1260 246M230 247L231 248L230 247M486 247L487 248L486 247M524.667 247.333L525.333 247.667L524.667 247.333M660 247L661 248L660 247M696 247L697 248L696 247M974 247L975 248L974 247M976 247L977 248L976 247M1006 247L1007 248L1006 247M1150 247L1151 248L1150 247z"/>
<path style="fill:#212121; stroke:none;" d="M1262 247L1263 248L1262 247z"/>
<path style="fill:#131313; stroke:none;" d="M1264 247L1265 248L1264 247M52 248L53 249L52 248M517.667 248.333L518.333 248.667L517.667 248.333z"/>
<path style="fill:#1c1c1c; stroke:none;" d="M663 248L664 249L663 248z"/>
<path style="fill:#131313; stroke:none;" d="M692 248L693 249L692 248M980 248L981 249L980 248M1002.67 248.333L1003.33 248.667L1002.67 248.333M1146.67 248.333L1147.33 248.667L1146.67 248.333z"/>
<path style="fill:#1c1c1c; stroke:none;" d="M1266 248L1267 249L1266 248z"/>
<path style="fill:#131313; stroke:none;" d="M1268 248L1269 249L1268 248M1270 248L1271 249L1270 248M1290 248L1291 249L1290 248M497 249L498 250L497 249M501 249L502 250L501 249M503 249L503 250L507 250L503 249M508 249L509 250L508 249M511 249L512 250L511 249z"/>
<path style="fill:#1c1c1c; stroke:none;" d="M512 249L513 250L512 249z"/>
<path style="fill:#131313; stroke:none;" d="M674 249L675 250L674 249M679 249L680 250L679 249M681 249L682 250L681 249M984 249L985 250L984 249M987.667 249.333L988.333 249.667L987.667 249.333M991 249L992 250L991 249M994 249L995 250L994 249M1129 249L1130 250L1129 249M1132 249L1133 250L1132 249M1139 249L1140 250L1139 249M1141 249L1142 250L1141 249M1272 249L1273 250L1272 249M1274 249L1275 250L1274 249M1284 249L1285 250L1284 249M1416 249L1417 250L1416 249M54 250L55 251L54 250M121 250L122 251L121 250M295 250L296 251L295 250M1415 250L1416 251L1415 250M1452 250L1453 251L1452 250M122.333 251.667L122.667 252.333L122.333 251.667M227 251L228 252L227 251z"/>
<path style="fill:#1c1c1c; stroke:none;" d="M1452 251L1453 252L1452 251z"/>
<path style="fill:#131313; stroke:none;" d="M56 252L57 253L56 252M293 252L294 253L293 252M226 253L227 254L226 253z"/>
<path style="fill:#1c1c1c; stroke:none;" d="M57 254L58 255L57 254z"/>
<path style="fill:#131313; stroke:none;" d="M224 255L225 256L224 255M290 255L291 256L290 255M59 256L60 257L59 256M60 257L61 258L60 257M1413 257L1414 258L1413 257M127.333 258.667L127.667 259.333L127.333 258.667M287 258L288 259L287 258z"/>
<path style="fill:#212121; stroke:none;" d="M288 258L289 259L288 258z"/>
<path style="fill:#131313; stroke:none;" d="M62 259L63 260L62 259z"/>
<path style="fill:#1c1c1c; stroke:none;" d="M287 259L288 260L287 259z"/>
<path style="fill:#131313; stroke:none;" d="M63 260L64 261L63 260M129.333 260.667L129.667 261.333L129.333 260.667M286 260L287 261L286 260M64 261L65 262L64 261z"/>
<path style="fill:#1c1c1c; stroke:none;" d="M130 261L131 262L130 261z"/>
<path style="fill:#131313; stroke:none;" d="M219 261L218 263L220 263L219 261z"/>
<path style="fill:#1c1c1c; stroke:none;" d="M285 261L286 262L285 261z"/>
<path style="fill:#131313; stroke:none;" d="M1373 261L1374 262L1373 261M1377.67 261.333L1378.33 261.667L1377.67 261.333M1411 261L1412 262L1411 261M65 262L66 263L65 262z"/>
<path style="fill:#1c1c1c; stroke:none;" d="M284 262L285 263L284 262M1371 262L1372 263L1371 262z"/>
<path style="fill:#131313; stroke:none;" d="M1380 262L1381 263L1380 262z"/>
<path style="fill:#1c1c1c; stroke:none;" d="M1410 262L1411 263L1410 262M132 263L133 264L132 263z"/>
<path style="fill:#212121; stroke:none;" d="M283 263L284 264L283 263M1370 263L1371 264L1370 263z"/>
<path style="fill:#131313; stroke:none;" d="M216 264L217 265L216 264M1385 265L1386 266L1385 265M1368 266L1369 267L1368 266M1387 266L1388 267L1387 266z"/>
<path style="fill:#1c1c1c; stroke:none;" d="M70 267L71 268L70 267z"/>
<path style="fill:#212121; stroke:none;" d="M1390 267L1391 268L1390 267M1447 267L1448 268L1447 267z"/>
<path style="fill:#131313; stroke:none;" d="M138 268L139 269L138 268M1391 268L1392 269L1391 268M1398.67 268.333L1399.33 268.667L1398.67 268.333M1401 268L1402 269L1401 268M210 269L211 270L210 269M276 269L277 270L276 269M1366 269L1367 270L1366 269z"/>
<path style="fill:#1c1c1c; stroke:none;" d="M141 270L142 271L141 270z"/>
<path style="fill:#131313; stroke:none;" d="M208 270L209 271L208 270M1445 270L1446 271L1445 270M75 271L76 272L75 271M142 271L143 272L142 271M207 271L208 272L207 271M274 271L275 272L274 271M144 272L145 273L144 272M273 272L274 273L273 272M1364 272L1365 273L1364 272M203 273L204 274L203 273M271 273L272 274L271 273M148 274L149 275L148 274M202 274L203 275L202 274M80 275L81 276L80 275z"/>
<path style="fill:#1c1c1c; stroke:none;" d="M151 275L152 276L151 275z"/>
<path style="fill:#131313; stroke:none;" d="M199 275L200 276L199 275M1362 275L1363 276L1362 275M152 276L153 277L152 276M196 276L197 277L196 276M155 277L156 278L155 277M194 277L195 278L194 277M1361 277L1362 278L1361 277z"/>
<path style="fill:#212121; stroke:none;" d="M1442 277L1443 278L1442 277z"/>
<path style="fill:#131313; stroke:none;" d="M157 278L158 279L157 278M160 278L161 279L160 278M189 278L190 279L189 278M1360 278L1361 279L1360 278M85 279L86 280L85 279M184.667 279.333L185.333 279.667L184.667 279.333M86 280L87 281L86 280M176 280L177 281L176 280M1439 280L1440 281L1439 280M261 281L262 282L261 281M89 282L90 283L89 282M260 282L261 283L260 282z"/>
<path style="fill:#1c1c1c; stroke:none;" d="M90 283L91 284L90 283z"/>
<path style="fill:#131313; stroke:none;" d="M258 283L259 284L258 283M1359 283L1360 284L1359 283M92 284L93 285L92 284M1436 284L1437 285L1436 284M255 285L256 286L255 285M95 286L96 287L95 286M254 286L255 287L254 286M96 287L97 288L96 287M252 287L253 288L252 287M98 288L99 289L98 288M251 288L252 289L251 288M249 289L250 290L249 289M1431 289L1432 290L1431 289M101 290L102 291L101 290M1364 290L1365 291L1364 290M103 291L104 292L103 291M1366 291L1367 292L1366 291M1428 291L1429 292L1428 291M244 292L245 293L244 292z"/>
<path style="fill:#212121; stroke:none;" d="M1367 292L1368 293L1367 292z"/>
<path style="fill:#131313; stroke:none;" d="M1427 292L1428 293L1427 292M106.667 293.333L107.333 293.667L106.667 293.333M242 293L243 294L242 293M109 294L110 295L109 294M1371.67 294.333L1372.33 294.667L1371.67 294.333M1423 294L1424 295L1423 294z"/>
<path style="fill:#1c1c1c; stroke:none;" d="M239 295L240 296L239 295z"/>
<path style="fill:#131313; stroke:none;" d="M1421 295L1422 296L1421 295M113 296L114 297L113 296M1376.67 296.333L1377.33 296.667L1376.67 296.333M1419 296L1420 297L1419 296M234.667 297.333L235.333 297.667L234.667 297.333M1380 297L1381 298L1380 297M1416 297L1417 298L1416 297M116 298L117 299L116 298z"/>
<path style="fill:#1c1c1c; stroke:none;" d="M233 298L234 299L233 298z"/>
<path style="fill:#131313; stroke:none;" d="M1384 298L1385 299L1384 298M1409 298L1410 299L1409 298M1413 298L1414 299L1413 298M118.667 299.333L119.333 299.667L118.667 299.333M1389.67 299.333L1390.33 299.667L1389.67 299.333M1392 299L1393 300L1392 299M1394 299L1395 300L1394 299M1401 299L1402 300L1401 299M1407 299L1408 300L1407 299z"/>
<path style="fill:#1c1c1c; stroke:none;" d="M1408 299L1409 300L1408 299z"/>
<path style="fill:#131313; stroke:none;" d="M121 300L122 301L121 300M228 300L229 301L228 300M123 301L124 302L123 301M125.667 302.333L126.333 302.667L125.667 302.333M223 302L224 303L223 302M219 303L220 304L219 303M135 305L136 306L135 305M141 307L142 308L141 307M144 308L145 309L144 308M202 308L203 309L202 308M204.667 308.333L205.333 308.667L204.667 308.333M149 309L150 310L149 309M151.667 309.333L152.333 309.667L151.667 309.333M200 309L201 310L200 309M194.667 310.333L195.333 310.667L194.667 310.333M161 311L162 312L161 311M163 311L164 312L163 311M165.667 311.333L166.333 311.667L165.667 311.333M185 311L186 312L185 311M187 311L188 312L187 311z"/>
</svg>
